<svg width="79" height="75" viewBox="0 0 79 75" fill="none" xmlns="http://www.w3.org/2000/svg"><path d="M3.08423 15.9024V8.73438C3.08423 5.56737 5.6516 3 8.81861 3H70.4632C73.6302 3 76.1976 5.56737 76.1976 8.73438V48.8751C76.1976 52.0421 73.6302 54.6094 70.4632 54.6094H60.428L63.7818 70.2603C64.0749 71.6282 62.4357 72.563 61.4076 71.6141L46.0921 57.4766H8.81861C5.6516 57.4766 3.08423 54.9093 3.08423 51.7422V48.8751" stroke="url(#paint0_linear)" stroke-width="4.30079"/><path d="M27.4074 25.8491L24.3395 41.2746H20.096L20.3827 39.7549C19.1021 40.9209 17.5251 41.5039 15.6519 41.5039C14.4477 41.5039 13.339 41.2268 12.3259 40.6724C11.3129 40.1181 10.5005 39.3249 9.88883 38.2927C9.29628 37.2414 9 36.0085 9 34.594C9 32.8928 9.37273 31.3636 10.1182 30.0065C10.8828 28.6302 11.915 27.5598 13.2148 26.7952C14.5146 26.0115 15.9482 25.6197 17.5156 25.6197C19.8858 25.6197 21.5583 26.3938 22.5331 27.9421L22.9345 25.8491H27.4074ZM17.0281 37.8053C17.9074 37.8053 18.6911 37.595 19.3792 37.1745C20.0674 36.7348 20.6026 36.1327 20.9849 35.3681C21.3672 34.6036 21.5583 33.7243 21.5583 32.7303C21.5583 31.679 21.2429 30.8475 20.6121 30.2359C20.0005 29.6242 19.1403 29.3184 18.0317 29.3184C17.1524 29.3184 16.3687 29.5382 15.6806 29.9778C14.9924 30.3983 14.4572 30.9909 14.0749 31.7555C13.6926 32.5201 13.5015 33.3993 13.5015 34.3933C13.5015 35.4446 13.8073 36.2761 14.419 36.8878C15.0498 37.4994 15.9195 37.8053 17.0281 37.8053Z" fill="url(#paint1_linear)"/><path d="M32.9534 41.5039C31.6153 41.5039 30.3442 41.3606 29.14 41.0739C27.9549 40.768 27.0278 40.3762 26.3588 39.8983L28.0791 36.6584C28.7482 37.098 29.5605 37.4516 30.5163 37.7192C31.4911 37.9868 32.4659 38.1206 33.4408 38.1206C34.4539 38.1206 35.2089 37.9964 35.7059 37.7479C36.2028 37.4803 36.4513 37.1076 36.4513 36.6297C36.4513 36.2474 36.2315 35.9703 35.7919 35.7982C35.3522 35.6262 34.645 35.4446 33.6702 35.2535C32.5615 35.0432 31.644 34.8138 30.9177 34.5653C30.2104 34.3168 29.5892 33.9154 29.054 33.3611C28.5379 32.7877 28.2798 32.0135 28.2798 31.0387C28.2798 29.3375 28.9871 28.009 30.4016 27.0533C31.8352 26.0976 33.7084 25.6197 36.0213 25.6197C37.0917 25.6197 38.1334 25.7344 39.1465 25.9638C40.1596 26.1931 41.0197 26.5085 41.727 26.9099L40.1213 30.1785C38.8598 29.3948 37.3402 29.003 35.5625 29.003C34.5877 29.003 33.8422 29.1463 33.3261 29.4331C32.8291 29.7198 32.5806 30.083 32.5806 30.5226C32.5806 30.924 32.8004 31.2203 33.2401 31.4114C33.6797 31.5835 34.4156 31.7746 35.4478 31.9849C36.5374 32.1951 37.4262 32.4245 38.1143 32.673C38.8216 32.9024 39.4332 33.2942 39.9493 33.8485C40.4654 34.4029 40.7235 35.1579 40.7235 36.1136C40.7235 37.8339 39.9971 39.1624 38.5444 40.099C37.1108 41.0356 35.2471 41.5039 32.9534 41.5039Z" fill="url(#paint2_linear)"/><path d="M52.9162 32.5583L58.2205 41.2746H53.0309L49.3609 35.2821L46.637 37.5472L45.8916 41.2746H41.4187L45.6622 20H50.135L47.7552 31.8988L55.1526 25.8491H60.973L52.9162 32.5583Z" fill="url(#paint3_linear)"/><defs><linearGradient id="paint0_linear" x1="3" y1="3" x2="66" y2="55.5" gradientUnits="userSpaceOnUse"><stop stop-color="#1877f2"/><stop offset="1" stop-color="#1877f2"/></linearGradient><linearGradient id="paint1_linear" x1="12.5" y1="26.5" x2="54.5" y2="42" gradientUnits="userSpaceOnUse"><stop stop-color="#1877f2"/><stop offset="1" stop-color="#1877f2"/></linearGradient><linearGradient id="paint2_linear" x1="12.5" y1="26.5" x2="54.5" y2="42" gradientUnits="userSpaceOnUse"><stop stop-color="#1877f2"/><stop offset="1" stop-color="#1877f2"/></linearGradient><linearGradient id="paint3_linear" x1="12.5" y1="26.5" x2="54.5" y2="42" gradientUnits="userSpaceOnUse"><stop stop-color="#1877f2"/><stop offset="1" stop-color="#1877f2"/></linearGradient></defs></svg>
