<svg version="1.0" xmlns="http://www.w3.org/2000/svg"
 width="48.000000pt" height="48.000000pt" viewBox="0 0 48.000000 48.000000"
 preserveAspectRatio="xMidYMid meet">
<g transform="translate(0.000000,48.000000) scale(0.100000,-0.100000)"
fill="#e7e7e9" stroke="none">
<path d="M77 402 c-14 -16 -17 -43 -17 -164 0 -184 -5 -178 147 -178 94 0 112
3 126 18 10 10 17 26 17 35 0 24 -27 21 -33 -3 -5 -19 -12 -21 -114 -18 l-108
3 0 145 0 145 108 3 c102 3 109 1 114 -18 7 -25 33 -27 33 -2 0 42 -30 52
-147 52 -94 0 -112 -3 -126 -18z"/>
<path d="M320 312 c0 -5 9 -17 20 -27 11 -10 20 -22 20 -27 0 -4 -49 -8 -110
-8 -60 0 -110 -4 -110 -9 0 -16 30 -21 128 -21 l95 0 -21 -23 c-50 -53 -9 -50
43 3 l39 40 -39 40 c-36 37 -65 51 -65 32z"/>
</g>
</svg>