<svg width="181" height="75" viewBox="0 0 181 75" fill="none" xmlns="http://www.w3.org/2000/svg">
<path d="M105.084 15.9024V8.73438C105.084 5.56737 107.652 3 110.819 3H172.463C175.63 3 178.198 5.56737 178.198 8.73438V48.8751C178.198 52.0421 175.63 54.6094 172.463 54.6094H162.428L165.782 70.2603C166.075 71.6282 164.436 72.563 163.408 71.6141L148.092 57.4766H110.819C107.652 57.4766 105.084 54.9093 105.084 51.7422V48.8751" stroke="url(#paint0_linear)" stroke-width="4.30079"/>
<path d="M16.708 27.832L10.464 42H6.88L0.72 27.832H5.144L8.784 37.016L12.536 27.832H16.708ZM18.1025 27.804H22.3305V42H18.1025V27.804ZM22.4705 21.14V25.116H17.9625V21.14H22.4705ZM38.5261 35.252H29.1741C29.2488 36.5773 29.5941 37.548 30.2101 38.164C30.8261 38.7613 31.7408 39.06 32.9541 39.06C33.6821 39.06 34.4101 38.9387 35.1381 38.696C35.8661 38.4533 36.5381 38.0987 37.1541 37.632L38.2741 40.488C37.6021 41.0293 36.7621 41.4587 35.7541 41.776C34.7648 42.0747 33.7661 42.224 32.7581 42.224C30.3688 42.224 28.4928 41.5707 27.1301 40.264C25.7675 38.9387 25.0861 37.1373 25.0861 34.86C25.0861 33.4227 25.3755 32.144 25.9541 31.024C26.5515 29.8853 27.3821 29.008 28.4461 28.392C29.5101 27.7573 30.7141 27.44 32.0581 27.44C34.0555 27.44 35.6328 28.0933 36.7901 29.4C37.9475 30.688 38.5261 32.4333 38.5261 34.636V35.252ZM32.1701 30.408C31.3675 30.408 30.7141 30.6413 30.2101 31.108C29.7248 31.5747 29.4075 32.256 29.2581 33.152H34.8861C34.6621 31.3227 33.7568 30.408 32.1701 30.408ZM64.1192 27.804L58.3792 42H54.8232L51.6032 33.768L48.5232 42H44.9392L39.1992 27.804H43.5112L46.9272 36.96L50.3152 27.804H53.1992L56.6152 37.044L60.0312 27.804H64.1192ZM78.3113 35.252H68.9593C69.0339 36.5773 69.3793 37.548 69.9953 38.164C70.6113 38.7613 71.5259 39.06 72.7393 39.06C73.4673 39.06 74.1953 38.9387 74.9233 38.696C75.6513 38.4533 76.3233 38.0987 76.9393 37.632L78.0593 40.488C77.3873 41.0293 76.5473 41.4587 75.5393 41.776C74.5499 42.0747 73.5513 42.224 72.5433 42.224C70.1539 42.224 68.2779 41.5707 66.9153 40.264C65.5526 38.9387 64.8713 37.1373 64.8713 34.86C64.8713 33.4227 65.1606 32.144 65.7393 31.024C66.3366 29.8853 67.1673 29.008 68.2313 28.392C69.2953 27.7573 70.4993 27.44 71.8433 27.44C73.8406 27.44 75.4179 28.0933 76.5753 29.4C77.7326 30.688 78.3113 32.4333 78.3113 34.636V35.252ZM71.9553 30.408C71.1526 30.408 70.4993 30.6413 69.9953 31.108C69.5099 31.5747 69.1926 32.256 69.0433 33.152H74.6713C74.4473 31.3227 73.5419 30.408 71.9553 30.408ZM89.2258 27.468C89.8231 27.468 90.3271 27.5613 90.7378 27.748L90.7098 31.612C90.0191 31.2947 89.3285 31.136 88.6378 31.136C87.5178 31.136 86.6591 31.444 86.0618 32.06C85.4831 32.6573 85.1938 33.4973 85.1938 34.58V42H80.9658V31.864C80.9658 30.352 80.8911 28.9987 80.7418 27.804H84.7178L84.9978 30.24C85.3525 29.344 85.9031 28.6627 86.6498 28.196C87.4151 27.7107 88.2738 27.468 89.2258 27.468ZM97.7455 42.224C95.0575 42.224 92.9388 41.6453 91.3895 40.488L92.5095 37.548C93.2561 38.0893 94.0868 38.5093 95.0015 38.808C95.9161 39.088 96.8495 39.228 97.8015 39.228C98.5295 39.228 99.0895 39.116 99.4815 38.892C99.8735 38.668 100.069 38.3413 100.069 37.912C100.069 37.5573 99.9295 37.2773 99.6495 37.072C99.3695 36.8667 98.8748 36.6893 98.1655 36.54L95.8415 36.008C94.4788 35.7093 93.4708 35.2333 92.8175 34.58C92.1828 33.9267 91.8655 33.0587 91.8655 31.976C91.8655 31.0987 92.1175 30.3147 92.6215 29.624C93.1441 28.9333 93.8628 28.4013 94.7775 28.028C95.6921 27.636 96.7468 27.44 97.9415 27.44C98.9495 27.44 99.9388 27.5987 100.909 27.916C101.88 28.2147 102.748 28.644 103.513 29.204L102.337 32.032C101.609 31.528 100.863 31.1453 100.097 30.884C99.3508 30.6227 98.6228 30.492 97.9135 30.492C97.2228 30.492 96.6815 30.6133 96.2895 30.856C95.8975 31.0987 95.7015 31.4347 95.7015 31.864C95.7015 32.1813 95.8135 32.4427 96.0375 32.648C96.2801 32.8347 96.7001 32.9933 97.2975 33.124L99.6775 33.656C101.133 33.992 102.188 34.496 102.841 35.168C103.495 35.84 103.821 36.736 103.821 37.856C103.821 39.2 103.28 40.264 102.197 41.048C101.115 41.832 99.6308 42.224 97.7455 42.224Z" fill="#E7E7E9"/>
<path d="M129.407 25.8491L126.339 41.2746H122.096L122.383 39.7549C121.102 40.9209 119.525 41.5039 117.652 41.5039C116.448 41.5039 115.339 41.2268 114.326 40.6724C113.313 40.1181 112.5 39.3249 111.889 38.2927C111.296 37.2414 111 36.0085 111 34.594C111 32.8928 111.373 31.3636 112.118 30.0065C112.883 28.6302 113.915 27.5598 115.215 26.7952C116.515 26.0115 117.948 25.6197 119.516 25.6197C121.886 25.6197 123.558 26.3938 124.533 27.9421L124.935 25.8491H129.407ZM119.028 37.8053C119.907 37.8053 120.691 37.595 121.379 37.1745C122.067 36.7348 122.603 36.1327 122.985 35.3681C123.367 34.6036 123.558 33.7243 123.558 32.7303C123.558 31.679 123.243 30.8475 122.612 30.2359C122 29.6242 121.14 29.3184 120.032 29.3184C119.152 29.3184 118.369 29.5382 117.681 29.9778C116.992 30.3983 116.457 30.9909 116.075 31.7555C115.693 32.5201 115.501 33.3993 115.501 34.3933C115.501 35.4446 115.807 36.2761 116.419 36.8878C117.05 37.4994 117.919 37.8053 119.028 37.8053Z" fill="url(#paint1_linear)"/>
<path d="M134.953 41.5039C133.615 41.5039 132.344 41.3606 131.14 41.0739C129.955 40.768 129.028 40.3762 128.359 39.8983L130.079 36.6584C130.748 37.098 131.561 37.4516 132.516 37.7192C133.491 37.9868 134.466 38.1206 135.441 38.1206C136.454 38.1206 137.209 37.9964 137.706 37.7479C138.203 37.4803 138.451 37.1076 138.451 36.6297C138.451 36.2474 138.232 35.9703 137.792 35.7982C137.352 35.6262 136.645 35.4446 135.67 35.2535C134.562 35.0432 133.644 34.8138 132.918 34.5653C132.21 34.3168 131.589 33.9154 131.054 33.3611C130.538 32.7877 130.28 32.0135 130.28 31.0387C130.28 29.3375 130.987 28.009 132.402 27.0533C133.835 26.0976 135.708 25.6197 138.021 25.6197C139.092 25.6197 140.133 25.7344 141.146 25.9638C142.16 26.1931 143.02 26.5085 143.727 26.9099L142.121 30.1785C140.86 29.3948 139.34 29.003 137.563 29.003C136.588 29.003 135.842 29.1463 135.326 29.4331C134.829 29.7198 134.581 30.083 134.581 30.5226C134.581 30.924 134.8 31.2203 135.24 31.4114C135.68 31.5835 136.416 31.7746 137.448 31.9849C138.537 32.1951 139.426 32.4245 140.114 32.673C140.822 32.9024 141.433 33.2942 141.949 33.8485C142.465 34.4029 142.723 35.1579 142.723 36.1136C142.723 37.8339 141.997 39.1624 140.544 40.099C139.111 41.0356 137.247 41.5039 134.953 41.5039Z" fill="url(#paint2_linear)"/>
<path d="M154.916 32.5583L160.22 41.2746H155.031L151.361 35.2821L148.637 37.5472L147.892 41.2746H143.419L147.662 20H152.135L149.755 31.8988L157.153 25.8491H162.973L154.916 32.5583Z" fill="url(#paint3_linear)"/>
<defs>
<linearGradient id="paint0_linear" x1="105" y1="3" x2="168" y2="55.5" gradientUnits="userSpaceOnUse">
<stop stop-color="#1773EA"/>
<stop offset="1" stop-color="#9147FF"/>
</linearGradient>
<linearGradient id="paint1_linear" x1="114.5" y1="26.5" x2="156.5" y2="42" gradientUnits="userSpaceOnUse">
<stop stop-color="#1877F2"/>
<stop offset="1" stop-color="#8643EA"/>
</linearGradient>
<linearGradient id="paint2_linear" x1="114.5" y1="26.5" x2="156.5" y2="42" gradientUnits="userSpaceOnUse">
<stop stop-color="#1877F2"/>
<stop offset="1" stop-color="#8643EA"/>
</linearGradient>
<linearGradient id="paint3_linear" x1="114.5" y1="26.5" x2="156.5" y2="42" gradientUnits="userSpaceOnUse">
<stop stop-color="#1877F2"/>
<stop offset="1" stop-color="#8643EA"/>
</linearGradient>
</defs>
</svg>
